HIERARCHY
ROOT joint_0
{
	OFFSET 0.000000 0.000000 0.000000
	CHANNELS 6 Xposition Yposition Zposition Zrotation Yrotation Xrotation 
	JOINT joint_1
	{
		OFFSET 0.511002 1.944000 108.288940
		CHANNELS 3 Zrotation Yrotation Xrotation
		JOINT joint_2
		{
			OFFSET -9.074005 1.512993 98.440063
			CHANNELS 3 Zrotation Yrotation Xrotation
			JOINT joint_3
			{
				OFFSET -8.590996 1.815002 98.366943
				CHANNELS 3 Zrotation Yrotation Xrotation
				JOINT joint_4
				{
					OFFSET 2.489998 3.531998 136.462036
					CHANNELS 3 Zrotation Yrotation Xrotation
					JOINT joint_5
					{
						OFFSET 22.708000 2.955002 80.357056
						CHANNELS 3 Zrotation Yrotation Xrotation
						End Site
						{
							OFFSET 0.000000 0.000000 0.000000
						}
					}
				}
				JOINT joint_6
				{
					OFFSET 2.860001 -27.684998 77.234009
					CHANNELS 3 Zrotation Yrotation Xrotation
					JOINT joint_7
					{
						OFFSET 5.449997 -131.244003 -18.851929
						CHANNELS 3 Zrotation Yrotation Xrotation
						JOINT joint_8
						{
							OFFSET 35.757000 -24.661995 -264.074097
							CHANNELS 3 Zrotation Yrotation Xrotation
							JOINT joint_9
							{
								OFFSET 49.392001 -1.747002 -239.960938
								CHANNELS 3 Zrotation Yrotation Xrotation
								End Site
								{
									OFFSET 0.000000 0.000000 0.000000
								}
							}
						}
					}
				}
				JOINT joint_10
				{
					OFFSET -0.127998 31.625000 75.753052
					CHANNELS 3 Zrotation Yrotation Xrotation
					JOINT joint_11
					{
						OFFSET -5.618004 131.132996 -19.557007
						CHANNELS 3 Zrotation Yrotation Xrotation
						JOINT joint_12
						{
							OFFSET 46.488998 30.127991 -261.826050
							CHANNELS 3 Zrotation Yrotation Xrotation
							JOINT joint_13
							{
								OFFSET 66.021003 0.474030 -235.934937
								CHANNELS 3 Zrotation Yrotation Xrotation
								End Site
								{
									OFFSET 0.000000 0.000000 0.000000
								}
							}
						}
					}
				}
			}
		}
	}
	JOINT joint_14
	{
		OFFSET 15.887001 -78.871004 -94.561035
		CHANNELS 3 Zrotation Yrotation Xrotation
		JOINT joint_15
		{
			OFFSET -4.133003 6.714001 -473.615967
			CHANNELS 3 Zrotation Yrotation Xrotation
			JOINT joint_16
			{
				OFFSET -19.541000 5.340000 -399.613007
				CHANNELS 3 Zrotation Yrotation Xrotation
				JOINT joint_17
				{
					OFFSET 164.317001 41.657999 -73.195000
					CHANNELS 3 Zrotation Yrotation Xrotation
					End Site
					{
						OFFSET 0.000000 0.000000 0.000000
					}
				}
			}
		}
	}
	JOINT joint_18
	{
		OFFSET 6.513000 77.960991 -96.406982
		CHANNELS 3 Zrotation Yrotation Xrotation
		JOINT joint_19
		{
			OFFSET -10.660004 -8.518997 -473.485016
			CHANNELS 3 Zrotation Yrotation Xrotation
			JOINT joint_20
			{
				OFFSET -36.967995 -11.098999 -398.260010
				CHANNELS 3 Zrotation Yrotation Xrotation
				JOINT joint_21
				{
					OFFSET 166.067997 30.363998 -74.785000
					CHANNELS 3 Zrotation Yrotation Xrotation
					End Site
					{
						OFFSET 0.000000 0.000000 0.000000
					}
				}
			}
		}
	}
}
MOTION
Frames: 7
Frame Time: 0.016667
-2002.632446 878.967468 1060.265015 2.464236 -0.965950 0.976872 -0.448820 0.960626 0.240533 -0.455036 -0.158027 -0.047418 -0.452972 0.231732 0.056619 0.100927 -0.089460 -0.345505 0.000000 0.000000 0.000000 1.420908 -1.898425 -0.661954 -0.396399 -1.797455 -4.382350 0.251586 -0.378437 1.208227 0.000000 0.000000 0.000000 -1.842236 0.150102 -0.182193 0.230427 0.506554 0.932084 0.563783 1.759049 1.993642 0.000000 0.000000 0.000000 -2.157166 1.221689 -2.470269 -2.198186 -0.375208 -0.351278 -2.160973 0.139242 -0.995538 0.000000 0.000000 0.000000 -0.641557 -0.091726 1.673075 -0.550150 -1.899429 -0.818927 -0.673579 2.168117 -0.698729 0.000000 0.000000 0.000000 
-2002.682251 878.987488 1060.206055 2.467494 -0.976088 0.975196 -0.447473 0.926705 0.249182 -0.455216 -0.146859 -0.046686 -0.452968 0.225233 0.055879 0.106570 -0.070677 -0.367851 0.000000 0.000000 0.000000 1.420794 -1.904244 -0.642774 -0.397759 -1.804911 -4.405078 0.250053 -0.357758 1.201340 0.000000 0.000000 0.000000 -1.865812 0.133337 -0.212058 0.226826 0.496051 0.978749 0.569319 1.871828 2.012004 0.000000 0.000000 0.000000 -2.157374 1.213825 -2.468317 -2.197738 -0.341387 -0.355421 -2.161428 0.128581 -0.993036 0.000000 0.000000 0.000000 -0.643294 -0.112433 1.679177 -0.552920 -1.837767 -0.833711 -0.675658 2.134831 -0.693586 0.000000 0.000000 0.000000 
-2002.794678 879.057129 1060.152954 2.472091 -0.990548 0.971468 -0.451767 0.905746 0.264294 -0.461225 -0.146277 -0.045900 -0.459215 0.228993 0.054678 0.113933 -0.033432 -0.398624 0.000000 0.000000 0.000000 1.442936 -1.876455 -0.664415 -0.414436 -1.773918 -4.477795 0.308980 -0.624024 1.480261 0.000000 0.000000 0.000000 -1.843795 0.177294 -0.221947 0.258776 0.542763 0.999421 0.548301 1.600604 1.940036 0.000000 0.000000 0.000000 -2.157789 1.202317 -2.470249 -2.197311 -0.293339 -0.357056 -2.162609 0.092244 -0.984343 0.000000 0.000000 0.000000 -0.645123 -0.139313 1.684198 -0.556310 -1.758120 -0.845776 -0.677442 2.083069 -0.684933 0.000000 0.000000 0.000000 
-2003.086060 879.146912 1060.113037 2.476761 -1.031511 0.968161 -0.472522 0.882288 0.282021 -0.482502 -0.171589 -0.033206 -0.483266 0.250394 0.045447 0.127932 0.070032 -0.461239 0.000000 0.000000 0.000000 1.463976 -1.866056 -0.673549 -0.428518 -1.764772 -4.628704 0.421288 -0.957025 2.020117 0.000000 0.000000 0.000000 -1.732423 0.256676 -0.222479 0.312218 0.613262 0.994684 0.529222 1.129924 1.876947 0.000000 0.000000 0.000000 -2.157174 1.207782 -2.479155 -2.196070 -0.237683 -0.355658 -2.163617 0.029194 -0.968792 0.000000 0.000000 0.000000 -0.647550 -0.147951 1.687745 -0.560121 -1.674325 -0.854745 -0.679111 2.017651 -0.673729 0.000000 0.000000 0.000000 
-2003.439941 879.286316 1060.079956 2.482755 -1.076590 0.963030 -0.498626 0.872373 0.305574 -0.509183 -0.208692 -0.019972 -0.513178 0.282512 0.036251 0.144041 0.191733 -0.533590 0.000000 0.000000 0.000000 1.506784 -1.822928 -0.715910 -0.461433 -1.718372 -4.837090 0.591027 -1.576993 2.840799 0.000000 0.000000 0.000000 -1.576419 0.395561 -0.209708 0.401967 0.740625 0.971528 0.482749 0.278931 1.719472 0.000000 0.000000 0.000000 -2.156897 1.209240 -2.492216 -2.194975 -0.167518 -0.351711 -2.165481 -0.059644 -0.947079 0.000000 0.000000 0.000000 -0.650022 -0.162869 1.689911 -0.564512 -1.572716 -0.861054 -0.680457 1.934356 -0.659112 0.000000 0.000000 0.000000 
-2003.581543 879.606262 1060.053955 2.493305 -1.062515 0.947023 -0.504217 0.953015 0.347228 -0.517908 -0.235194 -0.033179 -0.520953 0.312743 0.045718 0.146021 0.204447 -0.542129 0.000000 0.000000 0.000000 1.674819 -1.562160 -0.950237 -0.605495 -1.416208 -5.108805 0.880266 -3.437586 4.272574 0.000000 0.000000 0.000000 -1.460733 0.728285 -0.168755 0.613513 1.084431 0.945029 0.295570 -1.887568 1.070040 0.000000 0.000000 0.000000 -2.160754 1.140426 -2.503580 -2.196474 -0.053209 -0.345405 -2.171315 -0.187267 -0.917298 0.000000 0.000000 0.000000 -0.650375 -0.259549 1.690902 -0.569616 -1.406736 -0.863915 -0.680122 1.813641 -0.636913 0.000000 0.000000 0.000000 
-2003.343140 880.315125 1060.011963 2.522619 -0.985780 0.906585 -0.471930 1.107997 0.426141 -0.496822 -0.214746 -0.104147 -0.488362 0.304895 0.100273 0.117791 0.118796 -0.431342 0.000000 0.000000 0.000000 2.110868 -0.806918 -1.428867 -1.045792 -0.546078 -5.693338 1.324905 -7.553778 6.756974 0.000000 0.000000 0.000000 -1.383565 1.462104 -0.253213 1.069767 1.878882 1.023036 -0.119810 -6.369745 -0.377286 0.000000 0.000000 0.000000 -2.173627 1.003826 -2.516138 -2.205396 0.122196 -0.327870 -2.186491 -0.387242 -0.873316 0.000000 0.000000 0.000000 -0.650580 -0.456676 1.688343 -0.578820 -1.122681 -0.857622 -0.679041 1.617488 -0.600611 0.000000 0.000000 0.000000 
